<svg width="269" height="346" viewBox="0 0 269 346" fill="none" xmlns="http://www.w3.org/2000/svg">
<path d="M263.218 3.3327C263.421 1.42544 264.674 -0.0477555 266.017 0.0422277C267.36 0.132211 268.284 1.7513 268.081 3.65855L263.218 3.3327ZM191.794 82.0581L192.257 78.6137L192.297 78.6187L192.337 78.6256L191.794 82.0581ZM108.022 174.429L110.463 174.498L110.438 174.781L110.381 175.06L108.022 174.429ZM1.86604 339.735C0.564286 339.381 -0.176972 337.573 0.210364 335.697L6.52252 305.12C6.90987 303.244 8.27916 302.01 9.5809 302.364C10.8827 302.717 11.6239 304.525 11.2366 306.402L5.62578 333.581L24.482 338.706C25.7838 339.06 26.525 340.867 26.1377 342.744C25.7503 344.62 24.3811 345.854 23.0793 345.5L1.86604 339.735ZM1.39666 333.482C3.523 331.565 5.81058 329.565 8.22171 327.472L10.482 333.255C8.07689 335.342 5.82257 337.314 3.73814 339.193L1.39666 333.482ZM21.8229 315.589C26.0925 311.776 30.5565 307.663 35.1181 303.191L37.6419 308.73C32.9956 313.285 28.4607 317.462 24.145 321.317L21.8229 315.589ZM47.9097 289.856C51.9666 285.34 56.0256 280.513 60.0211 275.338L63.1466 280.198C59.035 285.523 54.8663 290.479 50.7107 295.105L47.9097 289.856ZM71.2407 259.519C74.7349 254.137 78.1229 248.433 81.3545 242.377L85.1791 246.149C81.8312 252.423 78.3253 258.325 74.7155 263.886L71.2407 259.519ZM90.1639 223.987C92.7977 217.821 95.2622 211.337 97.5187 204.512L101.943 206.878C99.6023 213.958 97.0454 220.685 94.3128 227.082L90.1639 223.987ZM103.333 184.202C104.161 180.81 104.939 177.343 105.663 173.798L110.381 175.06C109.632 178.726 108.827 182.314 107.97 185.827L103.333 184.202ZM105.582 174.361C105.902 170.675 106.268 167.095 106.682 163.622L111.531 164.071C111.131 167.432 110.775 170.907 110.463 174.498L105.582 174.361ZM110.134 142.229C111.747 134.607 113.709 127.636 116.069 121.323L120.374 124.029C118.206 129.826 116.369 136.325 114.838 143.558L110.134 142.229ZM125.651 102.488C129.501 96.9125 133.925 92.2953 138.963 88.6189L140.863 94.6892C136.345 97.9857 132.417 102.094 129.005 107.035L125.651 102.488ZM154.099 80.9583C158.857 79.4169 163.991 78.423 169.522 77.953L169.314 84.8549C164.015 85.3051 159.164 86.2519 154.725 87.6898L154.099 80.9583ZM184.728 77.8912C187.171 78.0546 189.68 78.2958 192.257 78.6137L191.332 85.5024C188.814 85.1918 186.369 84.9569 183.994 84.7981L184.728 77.8912ZM192.337 78.6256C195.357 79.1459 198.246 79.5684 201.01 79.8893L200.109 86.7809C197.276 86.4519 194.325 86.02 191.251 85.4905L192.337 78.6256ZM218.417 80.4257C225.07 79.8995 230.641 78.3788 235.346 75.8308L236.69 82.2532C231.331 85.1552 225.199 86.7747 218.187 87.3293L218.417 80.4257ZM249.136 61.8432C252.396 56.189 255.069 49.0193 257.294 40.0445L261.922 41.7034C259.557 51.2453 256.613 59.289 252.829 65.8521L249.136 61.8432ZM261.731 15.7419C262.263 11.8114 262.756 7.67742 263.218 3.3327L268.081 3.65855C267.611 8.08217 267.106 12.3104 266.561 16.3473L261.731 15.7419Z" fill="#41EBC1"/>
</svg>
