<svg width="294" height="379" viewBox="0 0 294 379" fill="none" xmlns="http://www.w3.org/2000/svg">
<path d="M5.39859 4.25124C5.19567 2.34398 3.94252 0.870787 2.5996 0.960766C1.25669 1.05075 0.332548 2.66983 0.535473 4.57709L5.39859 4.25124ZM83.8924 90.4969L83.43 87.0525L83.3896 87.0575L83.3494 87.0644L83.8924 90.4969ZM175.683 191.71L173.242 191.779L173.267 192.062L173.324 192.341L175.683 191.71ZM291.934 372.514C293.236 372.16 293.977 370.352 293.59 368.476L287.278 337.9C286.89 336.023 285.521 334.789 284.219 335.143C282.917 335.497 282.176 337.305 282.563 339.181L288.174 366.36L269.318 371.485C268.016 371.839 267.275 373.647 267.662 375.523C268.05 377.399 269.419 378.634 270.721 378.28L291.934 372.514ZM292.403 366.261C290.075 364.163 287.571 361.973 284.929 359.68L282.669 365.462C285.304 367.75 287.776 369.911 290.062 371.972L292.403 366.261ZM270.023 346.657C265.342 342.476 260.448 337.966 255.445 333.062L252.922 338.602C258.008 343.589 262.974 348.163 267.701 352.385L270.023 346.657ZM241.416 318.437C236.966 313.484 232.513 308.189 228.13 302.511L225.004 307.37C229.504 313.199 234.066 318.623 238.615 323.687L241.416 318.437ZM215.819 285.155C211.985 279.249 208.267 272.989 204.721 266.342L200.896 270.115C204.559 276.979 208.395 283.437 212.345 289.521L215.819 285.155ZM195.052 246.16C192.162 239.393 189.457 232.277 186.98 224.786L182.556 227.152C185.117 234.897 187.914 242.257 190.904 249.255L195.052 246.16ZM180.599 202.496C179.691 198.773 178.837 194.969 178.042 191.079L173.324 192.341C174.144 196.352 175.025 200.278 175.962 204.121L180.599 202.496ZM178.124 191.642C177.773 187.608 177.373 183.69 176.92 179.89L172.071 180.339C172.51 184.027 172.9 187.84 173.242 191.779L178.124 191.642ZM173.144 156.491C171.381 148.159 169.237 140.543 166.66 133.65L162.356 136.356C164.74 142.733 166.759 149.876 168.44 157.82L173.144 156.491ZM156.206 113.1C152.008 107.021 147.185 101.986 141.69 97.9763L139.79 104.047C144.765 107.677 149.093 112.202 152.852 117.647L156.206 113.1ZM125.166 89.614C119.968 87.9301 114.356 86.8433 108.307 86.3292L108.515 93.2311C114.331 93.7254 119.661 94.765 124.54 96.3455L125.166 89.614ZM91.67 86.2618C88.9962 86.4406 86.25 86.7045 83.43 87.0525L84.3548 93.9413C87.1159 93.6005 89.7985 93.3429 92.4045 93.1686L91.67 86.2618ZM83.3494 87.0644C80.8875 87.4885 78.5049 87.8534 76.1988 88.1574L77.1515 95.0426C79.5063 94.7322 81.9334 94.3604 84.4353 93.9294L83.3494 87.0644ZM61.8927 89.2623C56.6325 89.3253 51.8919 88.9298 47.6103 88.0546L47.3992 94.8958C51.9876 95.8336 56.9876 96.2419 62.439 96.1766L61.8927 89.2623ZM33.9181 82.6929C29.4389 79.8356 25.6715 76.0034 22.4488 71.0848L18.9917 75.4781C22.7456 81.2076 27.1401 85.663 32.2811 88.9425L33.9181 82.6929ZM14.6209 54.0746C12.7644 48.4265 11.1551 41.9837 9.7429 34.67L5.004 35.827C6.47407 43.4401 8.17786 50.2989 10.1913 56.4244L14.6209 54.0746ZM6.58917 14.5002C6.17127 11.2087 5.77547 7.79351 5.39859 4.25124L0.535473 4.57709C0.918633 8.17838 1.3221 11.6607 1.74937 15.0259L6.58917 14.5002Z" fill="#41EBC1"/>
</svg>
