<svg width="20" height="20" viewBox="0 0 20 20" fill="none" xmlns="http://www.w3.org/2000/svg">
<path d="M18.0917 6.07462C18.0142 5.99652 17.9221 5.93452 17.8205 5.89221C17.719 5.84991 17.61 5.82812 17.5 5.82812C17.39 5.82812 17.2811 5.84991 17.1795 5.89221C17.078 5.93452 16.9858 5.99652 16.9084 6.07462L11.6667 11.3246L8.0917 7.74129C8.01423 7.66318 7.92206 7.60119 7.82051 7.55888C7.71896 7.51657 7.61004 7.49479 7.50003 7.49479C7.39002 7.49479 7.2811 7.51657 7.17955 7.55888C7.078 7.60119 6.98583 7.66318 6.90836 7.74129L1.90836 12.7413C1.83026 12.8188 1.76826 12.9109 1.72595 13.0125C1.68365 13.114 1.66187 13.2229 1.66187 13.333C1.66187 13.443 1.68365 13.5519 1.72595 13.6534C1.76826 13.755 1.83026 13.8472 1.90836 13.9246C1.98583 14.0027 2.078 14.0647 2.17955 14.107C2.2811 14.1493 2.39002 14.1711 2.50003 14.1711C2.61004 14.1711 2.71896 14.1493 2.82051 14.107C2.92206 14.0647 3.01423 14.0027 3.0917 13.9246L7.50003 9.50796L11.075 13.0913C11.1525 13.1694 11.2447 13.2314 11.3462 13.2737C11.4478 13.316 11.5567 13.3378 11.6667 13.3378C11.7767 13.3378 11.8856 13.316 11.9872 13.2737C12.0887 13.2314 12.1809 13.1694 12.2584 13.0913L18.0917 7.25796C18.1698 7.18049 18.2318 7.08832 18.2741 6.98677C18.3164 6.88522 18.3382 6.7763 18.3382 6.66629C18.3382 6.55628 18.3164 6.44736 18.2741 6.34581C18.2318 6.24426 18.1698 6.15209 18.0917 6.07462V6.07462Z" fill="#71839B"/>
</svg>
