<svg width="20" height="20" viewBox="0 0 20 20" fill="none" xmlns="http://www.w3.org/2000/svg">
<path d="M14.1667 7.64076C14.0106 7.48556 13.7994 7.39844 13.5792 7.39844C13.3591 7.39844 13.1478 7.48556 12.9917 7.64076L10 10.5908L7.05004 7.64076C6.8939 7.48556 6.68269 7.39844 6.46254 7.39844C6.24238 7.39844 6.03117 7.48556 5.87504 7.64076C5.79693 7.71823 5.73494 7.8104 5.69263 7.91195C5.65032 8.0135 5.62854 8.12242 5.62854 8.23243C5.62854 8.34244 5.65032 8.45136 5.69263 8.55291C5.73494 8.65446 5.79693 8.74663 5.87504 8.8241L9.40837 12.3574C9.48584 12.4355 9.57801 12.4975 9.67956 12.5398C9.78111 12.5821 9.89003 12.6039 10 12.6039C10.11 12.6039 10.219 12.5821 10.3205 12.5398C10.4221 12.4975 10.5142 12.4355 10.5917 12.3574L14.1667 8.8241C14.2448 8.74663 14.3068 8.65446 14.3491 8.55291C14.3914 8.45136 14.4132 8.34244 14.4132 8.23243C14.4132 8.12242 14.3914 8.0135 14.3491 7.91195C14.3068 7.8104 14.2448 7.71823 14.1667 7.64076Z" fill="#2D68FE"/>
</svg>
