<svg width="20" height="20" viewBox="0 0 20 20" fill="none" xmlns="http://www.w3.org/2000/svg">
<path d="M14.9999 10.9827V8.33268C14.9987 7.15195 14.5797 6.00974 13.8171 5.10833C13.0545 4.20692 11.9975 3.60447 10.8333 3.40768V2.49935C10.8333 2.27834 10.7455 2.06637 10.5892 1.91009C10.4329 1.75381 10.2209 1.66602 9.99992 1.66602C9.7789 1.66602 9.56694 1.75381 9.41066 1.91009C9.25438 2.06637 9.16659 2.27834 9.16659 2.49935V3.40768C8.00237 3.60447 6.94536 4.20692 6.18274 5.10833C5.42012 6.00974 5.00112 7.15195 4.99992 8.33268V10.9827C4.51363 11.1546 4.09242 11.4727 3.79403 11.8935C3.49565 12.3142 3.3347 12.8169 3.33325 13.3327V14.9993C3.33325 15.2204 3.42105 15.4323 3.57733 15.5886C3.73361 15.7449 3.94557 15.8327 4.16659 15.8327H6.78325C6.97515 16.5388 7.39409 17.1622 7.97542 17.6066C8.55674 18.0511 9.26817 18.2918 9.99992 18.2918C10.7317 18.2918 11.4431 18.0511 12.0244 17.6066C12.6058 17.1622 13.0247 16.5388 13.2166 15.8327H15.8333C16.0543 15.8327 16.2662 15.7449 16.4225 15.5886C16.5788 15.4323 16.6666 15.2204 16.6666 14.9993V13.3327C16.6651 12.8169 16.5042 12.3142 16.2058 11.8935C15.9074 11.4727 15.4862 11.1546 14.9999 10.9827V10.9827ZM6.66659 8.33268C6.66659 7.44863 7.01777 6.60078 7.6429 5.97566C8.26802 5.35054 9.11586 4.99935 9.99992 4.99935C10.884 4.99935 11.7318 5.35054 12.3569 5.97566C12.9821 6.60078 13.3333 7.44863 13.3333 8.33268V10.8327H6.66659V8.33268ZM9.99992 16.666C9.70906 16.6643 9.42373 16.5864 9.17228 16.4402C8.92083 16.294 8.71201 16.0846 8.56658 15.8327H11.4333C11.2878 16.0846 11.079 16.294 10.8276 16.4402C10.5761 16.5864 10.2908 16.6643 9.99992 16.666ZM14.9999 14.166H4.99992V13.3327C4.99992 13.1117 5.08772 12.8997 5.244 12.7434C5.40028 12.5871 5.61224 12.4993 5.83325 12.4993H14.1666C14.3876 12.4993 14.5996 12.5871 14.7558 12.7434C14.9121 12.8997 14.9999 13.1117 14.9999 13.3327V14.166Z" fill="#71839B"/>
</svg>
