<svg width="20" height="20" viewBox="0 0 20 20" fill="none" xmlns="http://www.w3.org/2000/svg">
<path d="M17.0749 6.26753C17.0702 6.24556 17.0702 6.22283 17.0749 6.20086C17.0709 6.18163 17.0709 6.16176 17.0749 6.14253V6.06753L17.0249 5.94253C17.0046 5.90842 16.9793 5.87753 16.9499 5.85086L16.8749 5.78419H16.8333L13.5499 3.70919L10.4499 1.79253C10.3782 1.73564 10.2961 1.69319 10.2083 1.66753H10.1416C10.0671 1.6551 9.99109 1.6551 9.9166 1.66753H9.83327C9.73647 1.68894 9.64366 1.7255 9.55827 1.77586L3.33327 5.65086L3.25827 5.70919L3.18327 5.77586L3.09993 5.83419L3.05827 5.88419L3.00827 6.00919V6.08419V6.13419C3.00017 6.18945 3.00017 6.2456 3.00827 6.30086V13.5759C3.00798 13.7175 3.0438 13.8568 3.11233 13.9808C3.18086 14.1047 3.27984 14.2091 3.39993 14.2842L9.64994 18.1509L9.77493 18.2009H9.8416C9.98259 18.2456 10.134 18.2456 10.2749 18.2009H10.3416L10.4666 18.1509L16.6666 14.3425C16.7867 14.2675 16.8857 14.163 16.9542 14.0391C17.0227 13.9152 17.0586 13.7758 17.0583 13.6342V6.35919C17.0583 6.35919 17.0749 6.30086 17.0749 6.26753ZM9.99993 3.47586L11.4833 4.39253L6.82493 7.27586L5.33327 6.35919L9.99993 3.47586ZM9.1666 15.9759L4.58327 13.1759V7.85086L9.1666 10.6842V15.9759ZM9.99993 9.21753L8.40827 8.25919L13.0666 5.36753L14.6666 6.35919L9.99993 9.21753ZM15.4166 13.1509L10.8333 16.0009V10.6842L15.4166 7.85086V13.1509Z" fill="#71839B"/>
</svg>
