<svg width="20" height="20" viewBox="0 0 20 20" fill="none" xmlns="http://www.w3.org/2000/svg">
<path d="M9.99996 1.66602C8.35179 1.66602 6.74062 2.15476 5.37021 3.07044C3.9998 3.98611 2.9317 5.2876 2.30097 6.81032C1.67024 8.33304 1.50521 10.0086 1.82675 11.6251C2.1483 13.2416 2.94197 14.7265 4.10741 15.8919C5.27284 17.0573 6.7577 17.851 8.37421 18.1726C9.99072 18.4941 11.6663 18.3291 13.189 17.6983C14.7117 17.0676 16.0132 15.9995 16.9289 14.6291C17.8446 13.2587 18.3333 11.6475 18.3333 9.99935C18.3333 8.905 18.1177 7.82137 17.699 6.81032C17.2802 5.79927 16.6663 4.88061 15.8925 4.10679C15.1187 3.33297 14.2 2.71914 13.189 2.30035C12.1779 1.88156 11.0943 1.66602 9.99996 1.66602V1.66602ZM9.99996 16.666C8.68142 16.666 7.39249 16.275 6.29616 15.5425C5.19983 14.8099 4.34535 13.7687 3.84077 12.5506C3.33618 11.3324 3.20416 9.99195 3.46139 8.69875C3.71863 7.40554 4.35357 6.21765 5.28592 5.2853C6.21827 4.35295 7.40615 3.71802 8.69936 3.46078C9.99257 3.20355 11.333 3.33557 12.5512 3.84015C13.7694 4.34474 14.8105 5.19922 15.5431 6.29555C16.2756 7.39188 16.6666 8.68081 16.6666 9.99935C16.6666 11.7675 15.9643 13.4632 14.714 14.7134C13.4638 15.9636 11.7681 16.666 9.99996 16.666V16.666ZM13.3333 9.16602H10.8333V6.66602C10.8333 6.445 10.7455 6.23304 10.5892 6.07676C10.4329 5.92048 10.221 5.83268 9.99996 5.83268C9.77895 5.83268 9.56699 5.92048 9.41071 6.07676C9.25443 6.23304 9.16663 6.445 9.16663 6.66602V9.16602H6.66663C6.44562 9.16602 6.23365 9.25381 6.07737 9.41009C5.92109 9.56637 5.8333 9.77834 5.8333 9.99935C5.8333 10.2204 5.92109 10.4323 6.07737 10.5886C6.23365 10.7449 6.44562 10.8327 6.66663 10.8327H9.16663V13.3327C9.16663 13.5537 9.25443 13.7657 9.41071 13.9219C9.56699 14.0782 9.77895 14.166 9.99996 14.166C10.221 14.166 10.4329 14.0782 10.5892 13.9219C10.7455 13.7657 10.8333 13.5537 10.8333 13.3327V10.8327H13.3333C13.5543 10.8327 13.7663 10.7449 13.9226 10.5886C14.0788 10.4323 14.1666 10.2204 14.1666 9.99935C14.1666 9.77834 14.0788 9.56637 13.9226 9.41009C13.7663 9.25381 13.5543 9.16602 13.3333 9.16602Z" fill="#71839B"/>
</svg>
