<svg width="20" height="20" viewBox="0 0 20 20" fill="none" xmlns="http://www.w3.org/2000/svg">
<path d="M10.4917 10.8328L8.57508 12.7411C8.49697 12.8186 8.43498 12.9107 8.39267 13.0123C8.35037 13.1138 8.32858 13.2228 8.32858 13.3328C8.32858 13.4428 8.35037 13.5517 8.39267 13.6532C8.43498 13.7548 8.49697 13.847 8.57508 13.9244C8.65255 14.0025 8.74472 14.0645 8.84627 14.1068C8.94782 14.1491 9.05674 14.1709 9.16675 14.1709C9.27676 14.1709 9.38568 14.1491 9.48723 14.1068C9.58878 14.0645 9.68095 14.0025 9.75842 13.9244L13.0917 10.5911C13.1676 10.5118 13.2271 10.4184 13.2667 10.3161C13.3501 10.1132 13.3501 9.88565 13.2667 9.68277C13.2271 9.58047 13.1676 9.48702 13.0917 9.40777L9.75842 6.07443C9.68072 5.99673 9.58847 5.9351 9.48696 5.89305C9.38544 5.851 9.27663 5.82936 9.16675 5.82936C9.05687 5.82936 8.94806 5.851 8.84654 5.89305C8.74502 5.9351 8.65278 5.99673 8.57508 6.07443C8.49738 6.15213 8.43575 6.24437 8.3937 6.34589C8.35165 6.44741 8.33001 6.55622 8.33001 6.6661C8.33001 6.77598 8.35165 6.88479 8.3937 6.98631C8.43575 7.08782 8.49738 7.18007 8.57508 7.25777L10.4917 9.1661H2.50008C2.27907 9.1661 2.06711 9.2539 1.91083 9.41018C1.75455 9.56646 1.66675 9.77842 1.66675 9.99943C1.66675 10.2204 1.75455 10.4324 1.91083 10.5887C2.06711 10.745 2.27907 10.8328 2.50008 10.8328H10.4917ZM10.0001 1.6661C8.44266 1.65915 6.91445 2.08878 5.5888 2.90626C4.26316 3.72374 3.19313 4.89636 2.50008 6.2911C2.40063 6.49001 2.38426 6.72029 2.45459 6.93126C2.52491 7.14224 2.67617 7.31664 2.87508 7.4161C3.07399 7.51555 3.30427 7.53192 3.51525 7.46159C3.72622 7.39127 3.90063 7.24001 4.00008 7.0411C4.52691 5.9772 5.32828 5.07328 6.32137 4.42276C7.31447 3.77223 8.46327 3.3987 9.64904 3.34076C10.8348 3.28282 12.0146 3.54258 13.0663 4.09319C14.1181 4.6438 15.0038 5.46529 15.6318 6.47276C16.2599 7.48023 16.6075 8.63714 16.6387 9.82392C16.67 11.0107 16.3838 12.1843 15.8097 13.2234C15.2356 14.2626 14.3944 15.1296 13.373 15.7348C12.3517 16.34 11.1873 16.6615 10.0001 16.6661C8.75748 16.6715 7.53854 16.3264 6.48316 15.6705C5.42777 15.0145 4.57871 14.0743 4.03341 12.9578C3.93396 12.7589 3.75956 12.6076 3.54858 12.5373C3.3376 12.4669 3.10733 12.4833 2.90841 12.5828C2.7095 12.6822 2.55825 12.8566 2.48792 13.0676C2.41759 13.2786 2.43396 13.5089 2.53341 13.7078C3.1941 15.0374 4.19802 16.1663 5.44131 16.9778C6.6846 17.7893 8.12212 18.2539 9.60518 18.3236C11.0882 18.3932 12.563 18.0654 13.8769 17.374C15.1908 16.6826 16.2961 15.6528 17.0785 14.3909C17.8609 13.1291 18.292 11.6812 18.3272 10.1969C18.3624 8.71266 18.0004 7.24593 17.2786 5.94846C16.5569 4.65099 15.5016 3.5699 14.222 2.81702C12.9423 2.06414 11.4848 1.6668 10.0001 1.6661V1.6661Z" fill="#71839B"/>
</svg>
