<svg width="186" height="279" viewBox="0 0 186 279" fill="none" xmlns="http://www.w3.org/2000/svg">
<path d="M183.987 261.889C185.306 260.886 185.563 259.004 184.561 257.685L168.226 236.187C167.224 234.867 165.342 234.61 164.023 235.613C162.703 236.615 162.447 238.497 163.449 239.817L177.968 258.926L158.859 273.446C157.54 274.448 157.283 276.33 158.285 277.649C159.287 278.969 161.169 279.226 162.489 278.223L183.987 261.889ZM0.831137 1.09635C0.939367 4.4645 1.05855 7.79072 1.18909 11.0755L7.18436 10.8373C7.05444 7.56825 6.9358 4.25723 6.82804 0.90365L0.831137 1.09635ZM2.14271 30.8273C2.5317 37.5977 2.97838 44.1782 3.48704 50.5742L9.46816 50.0985C8.96326 43.7499 8.51951 37.2133 8.13283 30.4832L2.14271 30.8273ZM5.32709 70.3765C6.05487 77.1519 6.86738 83.7011 7.77088 90.0313L13.7107 89.1835C12.8178 82.928 12.0138 76.4481 11.2928 69.7357L5.32709 70.3765ZM11.0076 109.695C12.2801 116.445 13.6823 122.918 15.224 129.124L21.0471 127.678C19.5353 121.592 18.157 115.231 16.9037 108.584L11.0076 109.695ZM20.7189 148.316C22.8807 154.897 25.2474 161.136 27.8351 167.049L33.3318 164.644C30.8268 158.92 28.5268 152.86 26.4193 146.444L20.7189 148.316ZM36.936 184.958C40.4267 190.89 44.2221 196.425 48.3447 201.585L53.0326 197.84C49.0956 192.912 45.4603 187.614 42.1071 181.915L36.936 184.958ZM62.1238 216.347C67.0496 220.863 72.3323 225.007 77.9918 228.808L81.3373 223.827C75.9201 220.189 70.8755 216.231 66.1786 211.924L62.1238 216.347ZM95.4303 238.875C101.253 241.756 107.399 244.377 113.883 246.76L115.953 241.128C109.653 238.813 103.705 236.276 98.0911 233.498L95.4303 238.875ZM132.923 252.832C139.11 254.536 145.564 256.079 152.295 257.477L153.515 251.602C146.897 250.228 140.568 248.714 134.516 247.047L132.923 252.832ZM171.892 261.026C175.126 261.533 178.417 262.015 181.766 262.472L182.578 256.528C179.266 256.076 176.015 255.6 172.823 255.098L171.892 261.026Z" fill="#41EBC1"/>
</svg>
