<svg width="100" height="100" viewBox="0 0 100 100" fill="none" xmlns="http://www.w3.org/2000/svg">
<path d="M100 50C100 77.6142 77.6142 100 50 100C22.3858 100 0 77.6142 0 50C0 22.3858 22.3858 0 50 0C77.6142 0 100 22.3858 100 50ZM7.11989 50C7.11989 73.682 26.318 92.8801 50 92.8801C73.682 92.8801 92.8801 73.682 92.8801 50C92.8801 26.318 73.682 7.11989 50 7.11989C26.318 7.11989 7.11989 26.318 7.11989 50Z" fill="#EBEBEB"/>
<path d="M96.4401 50C98.4062 50 100.013 51.596 99.8734 53.5572C99.1252 64.05 95.0818 74.0741 88.2742 82.1728C80.7006 91.1826 70.1913 97.2318 58.5965 99.2555C47.0016 101.279 35.0645 99.1474 24.8867 93.2357C14.7089 87.3239 6.94295 78.0112 2.95596 66.9369C-1.03103 55.8626 -0.98341 43.7368 3.09043 32.6942C7.16427 21.6515 15.0032 12.4 25.2271 6.56843C35.451 0.736813 47.4044 -1.30106 58.983 0.813568C69.3907 2.71435 78.8958 7.86071 86.1607 15.4687C87.5185 16.8906 87.2976 19.1448 85.7827 20.398V20.398C84.2678 21.6512 82.0337 21.4271 80.6592 20.0213C74.4753 13.6968 66.4623 9.41718 57.7039 7.81761C47.774 6.0041 37.5227 7.75178 28.7547 12.753C19.9866 17.7542 13.264 25.6883 9.77025 35.1585C6.27652 44.6287 6.23568 55.0278 9.65493 64.5251C13.0742 74.0225 19.7343 82.0091 28.4628 87.079C37.1913 92.1489 47.4286 93.9771 57.3723 92.2416C67.3161 90.5061 76.3289 85.3183 82.824 77.5915C88.5529 70.7761 91.9991 62.3709 92.7325 53.5561C92.8955 51.5967 94.474 50 96.4401 50V50Z" fill="#82A284"/>
</svg>
